<svg width="156" height="27" viewBox="0 0 156 27" fill="none" xmlns="http://www.w3.org/2000/svg">
<path d="M11.032 17.684C11.032 17.132 10.948 16.676 10.78 16.316C10.636 15.932 10.432 15.632 10.168 15.416C9.928 15.176 9.64 15.008 9.304 14.912C8.968 14.816 8.608 14.768 8.224 14.768H6.064L5.416 21.896C5.68 21.896 5.956 21.908 6.244 21.932C6.508 21.956 6.784 21.98 7.072 22.004C7.384 22.004 7.708 22.004 8.044 22.004C8.596 22.004 9.064 21.896 9.448 21.68C9.832 21.44 10.132 21.128 10.348 20.744C10.588 20.36 10.756 19.904 10.852 19.376C10.972 18.848 11.032 18.284 11.032 17.684ZM11.428 7.208C11.428 6.44 11.248 5.84 10.888 5.408C10.528 4.976 10.012 4.76 9.34 4.76C9.052 4.76 8.764 4.772 8.476 4.796C8.188 4.796 7.924 4.808 7.684 4.832C7.42 4.856 7.168 4.88 6.928 4.904L6.424 10.736H8.368C9.52 10.736 10.3 10.436 10.708 9.836C11.14 9.212 11.38 8.336 11.428 7.208ZM15.964 18.584C15.82 20.12 15.532 21.392 15.1 22.4C14.668 23.384 14.092 24.176 13.372 24.776C12.652 25.352 11.776 25.76 10.744 26C9.736 26.216 8.572 26.324 7.252 26.324C6.484 26.324 5.68 26.312 4.84 26.288C4.024 26.264 3.268 26.228 2.572 26.18C1.756 26.132 0.952 26.072 0.16 26L2.356 0.799998C3.172 0.727999 3.976 0.667999 4.768 0.619998C5.464 0.571999 6.184 0.536 6.928 0.512C7.672 0.487999 8.344 0.475998 8.944 0.475998C11.488 0.475998 13.348 0.931999 14.524 1.844C15.724 2.732 16.324 4.196 16.324 6.236C16.324 7.34 16.228 8.264 16.036 9.008C15.844 9.752 15.58 10.364 15.244 10.844C14.908 11.324 14.512 11.684 14.056 11.924C13.624 12.164 13.144 12.332 12.616 12.428C13.624 12.596 14.44 13.1 15.064 13.94C15.712 14.78 16.036 15.92 16.036 17.36C16.036 17.504 16.024 17.708 16 17.972C16 18.212 15.988 18.416 15.964 18.584ZM34.4995 15.02C34.4995 15.284 34.4875 15.548 34.4635 15.812C34.4635 16.076 34.4515 16.352 34.4275 16.64C34.2595 18.536 33.9715 20.108 33.5635 21.356C33.1795 22.58 32.6395 23.564 31.9435 24.308C31.2475 25.028 30.3955 25.532 29.3875 25.82C28.3795 26.108 27.1915 26.252 25.8235 26.252C24.6955 26.252 23.6995 26.144 22.8355 25.928C21.9715 25.688 21.2395 25.28 20.6395 24.704C20.0395 24.128 19.5835 23.36 19.2715 22.4C18.9835 21.416 18.8395 20.192 18.8395 18.728C18.8395 16.832 18.9955 15.2 19.3075 13.832C19.6195 12.44 20.1235 11.3 20.8195 10.412C21.5155 9.5 22.4035 8.828 23.4835 8.396C24.5875 7.964 25.9075 7.748 27.4435 7.748C29.7955 7.748 31.5595 8.336 32.7355 9.512C33.9115 10.664 34.4995 12.5 34.4995 15.02ZM29.4955 17.18C29.5675 16.412 29.6035 15.752 29.6035 15.2C29.6035 13.856 29.3995 12.932 28.9915 12.428C28.6075 11.9 27.9715 11.636 27.0835 11.636C26.5555 11.636 26.0995 11.732 25.7155 11.924C25.3315 12.092 25.0075 12.392 24.7435 12.824C24.5035 13.256 24.3115 13.832 24.1675 14.552C24.0235 15.248 23.9035 16.124 23.8075 17.18C23.7355 17.972 23.6995 18.656 23.6995 19.232C23.6995 20.432 23.8795 21.26 24.2395 21.716C24.5995 22.148 25.2355 22.364 26.1475 22.364C26.6995 22.364 27.1675 22.28 27.5515 22.112C27.9355 21.944 28.2595 21.668 28.5235 21.284C28.7875 20.876 28.9915 20.348 29.1355 19.7C29.2795 19.028 29.3995 18.188 29.4955 17.18ZM36.5973 26L38.1453 8H42.0333L42.2133 9.908C42.8133 9.236 43.5093 8.696 44.3013 8.288C45.1173 7.88 46.0533 7.676 47.1093 7.676C48.9333 7.676 50.2053 8.12 50.9253 9.008C51.6453 9.872 52.0053 11.24 52.0053 13.112C52.0053 13.592 51.9693 14.288 51.8973 15.2L50.9613 26H46.1733L47.1093 15.308C47.1333 15.116 47.1453 14.888 47.1453 14.624C47.1693 14.36 47.1813 14.12 47.1813 13.904C47.1813 13.064 47.0253 12.512 46.7133 12.248C46.4253 11.96 45.9933 11.816 45.4173 11.816C44.9133 11.816 44.4693 11.972 44.0853 12.284C43.7013 12.596 43.3773 12.98 43.1133 13.436C42.8493 13.868 42.6453 14.348 42.5013 14.876C42.3573 15.404 42.2613 15.884 42.2133 16.316L41.3853 26H36.5973ZM71.3981 9.08C71.4221 8.888 71.4341 8.708 71.4341 8.54C71.4341 8.348 71.4341 8.156 71.4341 7.964C71.4341 6.908 71.2661 6.116 70.9301 5.588C70.5941 5.036 69.9821 4.76 69.0941 4.76C68.3261 4.76 67.7381 4.796 67.3301 4.868C67.0901 4.916 66.8981 4.952 66.7541 4.976L66.0341 13.076H68.3021C69.1421 13.076 69.8381 12.716 70.3901 11.996C70.9421 11.276 71.2781 10.304 71.3981 9.08ZM76.4021 8.828C76.2581 10.412 75.9821 11.744 75.5741 12.824C75.1901 13.904 74.6501 14.78 73.9541 15.452C73.2581 16.124 72.3941 16.604 71.3621 16.892C70.3301 17.18 69.1181 17.324 67.7261 17.324H65.6741L64.9181 26H59.9861L62.1821 0.799998C62.8781 0.751999 63.6101 0.691999 64.3781 0.619998C65.0261 0.571999 65.7461 0.536 66.5381 0.512C67.3301 0.463999 68.0981 0.439999 68.8421 0.439999C70.2341 0.439999 71.4101 0.595999 72.3701 0.907999C73.3541 1.196 74.1461 1.64 74.7461 2.24C75.3461 2.816 75.7781 3.536 76.0421 4.4C76.3301 5.264 76.4741 6.248 76.4741 7.352C76.4741 7.592 76.4621 7.832 76.4381 8.072C76.4381 8.312 76.4261 8.564 76.4021 8.828ZM77.5994 17.468C77.7674 15.62 78.0554 14.072 78.4634 12.824C78.8714 11.576 79.4354 10.568 80.1554 9.8C80.8994 9.032 81.8114 8.492 82.8914 8.18C83.9714 7.844 85.2554 7.676 86.7434 7.676C87.7034 7.676 88.7234 7.772 89.8034 7.964C90.9074 8.132 91.8554 8.324 92.6474 8.54L91.5674 21.428C91.5674 21.74 91.6514 21.98 91.8194 22.148C91.9874 22.316 92.3354 22.4 92.8634 22.4L92.5754 26H90.4874C90.2234 26 89.9234 25.976 89.5874 25.928C89.2754 25.88 88.9634 25.784 88.6514 25.64C88.3394 25.472 88.0634 25.256 87.8234 24.992C87.6074 24.728 87.4514 24.38 87.3554 23.948C86.7554 24.692 86.0594 25.28 85.2674 25.712C84.4994 26.12 83.5754 26.324 82.4954 26.324C80.7674 26.324 79.4954 25.856 78.6794 24.92C77.8874 23.96 77.4914 22.316 77.4914 19.988C77.4914 19.196 77.5274 18.356 77.5994 17.468ZM84.1154 22.22C84.5954 22.22 85.0034 22.088 85.3394 21.824C85.6994 21.56 85.9994 21.224 86.2394 20.816C86.4794 20.384 86.6714 19.928 86.8154 19.448C86.9594 18.944 87.0434 18.476 87.0674 18.044L87.5714 11.852C87.3074 11.828 87.0434 11.816 86.7794 11.816C86.5154 11.792 86.2754 11.78 86.0594 11.78C85.5794 11.78 85.1114 11.888 84.6554 12.104C84.2234 12.296 83.8274 12.68 83.4674 13.256C83.1314 13.832 82.8554 14.636 82.6394 15.668C82.4474 16.676 82.3514 17.996 82.3514 19.628C82.3514 20.684 82.4834 21.38 82.7474 21.716C83.0354 22.052 83.4914 22.22 84.1154 22.22ZM102.889 12.14L102.241 19.88C102.217 20.216 102.193 20.468 102.169 20.636C102.169 20.78 102.169 20.876 102.169 20.924C102.169 21.788 102.625 22.22 103.537 22.22C103.921 22.22 104.329 22.184 104.761 22.112C105.193 22.04 105.541 21.968 105.805 21.896L105.481 25.892C105.361 25.916 105.145 25.952 104.833 26C104.545 26.072 104.221 26.12 103.861 26.144C103.501 26.192 103.129 26.228 102.745 26.252C102.361 26.3 102.001 26.324 101.665 26.324C100.801 26.324 100.093 26.228 99.5408 26.036C98.9888 25.844 98.5448 25.568 98.2088 25.208C97.8728 24.824 97.6328 24.368 97.4888 23.84C97.3688 23.288 97.3088 22.664 97.3088 21.968C97.3088 21.728 97.3088 21.476 97.3088 21.212C97.3328 20.948 97.3568 20.684 97.3808 20.42L98.1008 12.14H95.7608L96.1208 8H98.4608L98.8568 3.68H103.645L103.249 8H106.849L106.489 12.14H102.889ZM108.708 26L110.256 8H114.144L114.36 10.268C114.864 9.476 115.44 8.852 116.088 8.396C116.76 7.916 117.516 7.676 118.356 7.676C118.74 7.676 119.052 7.688 119.292 7.712C119.532 7.736 119.748 7.772 119.94 7.82L119.508 12.788C118.98 12.644 118.464 12.572 117.96 12.572C116.928 12.572 116.076 13.028 115.404 13.94C114.732 14.852 114.336 16.04 114.216 17.504L113.496 26H108.708ZM136.785 15.02C136.785 15.284 136.773 15.548 136.749 15.812C136.749 16.076 136.737 16.352 136.713 16.64C136.545 18.536 136.257 20.108 135.849 21.356C135.465 22.58 134.925 23.564 134.229 24.308C133.533 25.028 132.681 25.532 131.673 25.82C130.665 26.108 129.477 26.252 128.109 26.252C126.981 26.252 125.985 26.144 125.121 25.928C124.257 25.688 123.525 25.28 122.925 24.704C122.325 24.128 121.869 23.36 121.557 22.4C121.269 21.416 121.125 20.192 121.125 18.728C121.125 16.832 121.281 15.2 121.593 13.832C121.905 12.44 122.409 11.3 123.105 10.412C123.801 9.5 124.689 8.828 125.769 8.396C126.873 7.964 128.193 7.748 129.729 7.748C132.081 7.748 133.845 8.336 135.021 9.512C136.197 10.664 136.785 12.5 136.785 15.02ZM131.781 17.18C131.853 16.412 131.889 15.752 131.889 15.2C131.889 13.856 131.685 12.932 131.277 12.428C130.893 11.9 130.257 11.636 129.369 11.636C128.841 11.636 128.385 11.732 128.001 11.924C127.617 12.092 127.293 12.392 127.029 12.824C126.789 13.256 126.597 13.832 126.453 14.552C126.309 15.248 126.189 16.124 126.093 17.18C126.021 17.972 125.985 18.656 125.985 19.232C125.985 20.432 126.165 21.26 126.525 21.716C126.885 22.148 127.521 22.364 128.433 22.364C128.985 22.364 129.453 22.28 129.837 22.112C130.221 21.944 130.545 21.668 130.809 21.284C131.073 20.876 131.277 20.348 131.421 19.7C131.565 19.028 131.685 18.188 131.781 17.18ZM139.962 26L141.51 8H145.398L145.578 9.908C146.178 9.236 146.874 8.696 147.666 8.288C148.482 7.88 149.418 7.676 150.474 7.676C152.298 7.676 153.57 8.12 154.29 9.008C155.01 9.872 155.37 11.24 155.37 13.112C155.37 13.592 155.334 14.288 155.262 15.2L154.326 26H149.538L150.474 15.308C150.498 15.116 150.51 14.888 150.51 14.624C150.534 14.36 150.546 14.12 150.546 13.904C150.546 13.064 150.39 12.512 150.078 12.248C149.79 11.96 149.358 11.816 148.782 11.816C148.278 11.816 147.834 11.972 147.45 12.284C147.066 12.596 146.742 12.98 146.478 13.436C146.214 13.868 146.01 14.348 145.866 14.876C145.722 15.404 145.626 15.884 145.578 16.316L144.75 26H139.962Z" fill="black"/>
</svg>
